# xmcd
#
# Track frame offsets:
# 150
# 15785
# 36185
# 55623
# 78699
# 96497
# 121062
# 135053
# 156934
# 170453
# 192220
# 213846
# 235791
#
# Disc length: 3451 seconds
#
# Revision: 1
# Processed by: cddbd v1.4PL0 Copyright (c) Steve Scherf et al.
# Submitted via: CedeCatalogueitor 2.5 http://usuarios.lycos.es/kakasboy
#
DISCID=970d790d
DTITLE=Eric Clapton - Reptile
DYEAR=2001
DGENRE=
TTITLE0=Reptile
TTITLE1=Got You On My Mind
TTITLE2=Travellin' Light
TTITLE3=Believe In Life
TTITLE4=Come Back Baby
TTITLE5=Broken Down
TTITLE6=Find Myself
TTITLE7=I Ain't Gonna Stand For It
TTITLE8=I Want A Little Girl
TTITLE9=Second Nature
TTITLE10=Don't Let Me Be Lonely Tonight
TTITLE11=Modern Girl
TTITLE12=Superman Inside
EXTD=
EXTT0=
EXTT1=
EXTT2=
EXTT3=
EXTT4=
EXTT5=
EXTT6=
EXTT7=
EXTT8=
EXTT9=
EXTT10=
EXTT11=
EXTT12=
PLAYORDER=
